<svg width="134" height="19" viewBox="0 0 134 19" fill="none" xmlns="http://www.w3.org/2000/svg">
<path d="M12.3886 16.5918V16.8091H9.91117L8.93409 14.8564H3.4545L2.47742 16.8091H0V16.5918L6.07826 5.44189H6.31033L12.3886 16.5918ZM7.94371 12.8963L6.19503 9.43445L4.44487 12.8889L7.94371 12.8963Z" fill="white"/>
<path d="M23.8593 10.1481V15.7459C22.7521 16.4747 20.8423 16.9551 19.1291 16.9551C15.3982 16.9551 12.906 14.6669 12.906 11.2419C12.906 7.84212 15.3982 5.58643 19.1291 5.58643C20.8497 5.58643 22.6427 6.08161 23.6923 6.83992V9.1577C22.7004 8.25453 21.0389 7.65587 19.5667 7.65587C17.0168 7.65587 15.311 9.09857 15.311 11.2567C15.311 13.4429 16.9873 14.8856 19.4942 14.8856C20.1957 14.8774 20.8905 14.7494 21.5489 14.5072V12.1303H18.4595V10.1481H23.8593Z" fill="white"/>
<path d="M37.0786 16.5916V16.8089H34.5894L32.4179 12.8178H28.9605V16.8089H26.6575V5.73291H32.6914C35.1112 5.73291 36.7135 7.14605 36.7135 9.28053C36.7313 9.94809 36.5457 10.6053 36.1814 11.165C35.8171 11.7246 35.2913 12.1603 34.6736 12.4143L37.0786 16.5916ZM28.9605 10.8489H32.5746C33.6241 10.8489 34.3085 10.2073 34.3085 9.27462C34.3085 8.34189 33.6093 7.71514 32.5746 7.71514H28.9605V10.8489Z" fill="white"/>
<path d="M39.3816 5.73291H41.6846V16.8089H39.3816V5.73291Z" fill="white"/>
<path d="M44.1326 11.2419C44.1326 7.84212 46.4977 5.58643 50.0201 5.58643C51.5515 5.58643 53.1539 6.05353 54.1014 6.78227V9.08527C53.0992 8.18449 51.805 7.67677 50.4577 7.65587C48.1118 7.65587 46.5376 9.09857 46.5376 11.2567C46.5376 13.4429 48.1118 14.8856 50.4872 14.8856C51.7555 14.8856 53.2706 14.2589 54.2477 13.3409V15.672C53.2411 16.4451 51.5515 16.9551 50.0201 16.9551C46.4784 16.9551 44.1326 14.6669 44.1326 11.2419Z" fill="white"/>
<path d="M56.0229 11.2715C56.0229 7.85986 58.4427 5.58643 62.0569 5.58643C65.671 5.58643 68.076 7.85986 68.076 11.2715C68.076 14.6831 65.671 16.9551 62.0569 16.9551C58.4427 16.9551 56.0229 14.6816 56.0229 11.2715ZM65.671 11.2715C65.671 9.09857 64.2283 7.65587 62.0569 7.65587C59.8854 7.65587 58.4279 9.09857 58.4279 11.2715C58.4279 13.4444 59.8706 14.8856 62.0569 14.8856C64.2431 14.8856 65.674 13.4429 65.674 11.2715H65.671Z" fill="white"/>
<path d="M80.9921 5.73291V5.95168L74.9138 17.1016H74.6818L68.6035 5.95168V5.73291H71.0809L74.7956 12.8163L78.5132 5.73291H80.9921Z" fill="white"/>
<path d="M92.1274 14.8296V16.8104H82.5813V5.73291H91.9662V7.71514H84.8828V10.1482H91.5346V12.1305H84.8828V14.8296H92.1274Z" fill="white"/>
<path d="M105.041 16.5916V16.8089H102.548L100.377 12.8178H96.9224V16.8089H94.6194V5.73291H100.653C103.073 5.73291 104.675 7.14605 104.675 9.28053C104.693 9.94809 104.508 10.6053 104.143 11.165C103.779 11.7246 103.253 12.1603 102.636 12.4143L105.041 16.5916ZM96.9224 10.8489H100.537C101.586 10.8489 102.27 10.2073 102.27 9.27462C102.27 8.34189 101.571 7.71514 100.537 7.71514H96.9224V10.8489Z" fill="white"/>
<path d="M108.765 6.72788C108.765 7.4315 108.267 7.91042 107.518 7.91042C106.768 7.91042 106.266 7.43889 106.266 6.72788C106.266 6.01688 106.764 5.55273 107.518 5.55273C108.272 5.55273 108.765 6.01984 108.765 6.72788ZM108.564 6.72788C108.564 6.12774 108.149 5.72272 107.518 5.72272C106.887 5.72272 106.465 6.12774 106.465 6.72788C106.465 7.32802 106.882 7.73452 107.518 7.73452C108.153 7.73452 108.564 7.32802 108.564 6.72788ZM107.856 6.82101L108.139 7.30733V7.32802H107.907L107.649 6.85649H107.206V7.32802H106.995V6.08192H107.667C107.723 6.0757 107.779 6.08125 107.832 6.09822C107.886 6.1152 107.935 6.1432 107.977 6.18042C108.019 6.21765 108.052 6.26325 108.075 6.31428C108.098 6.3653 108.11 6.42061 108.111 6.47659C108.11 6.55351 108.085 6.62829 108.04 6.69018C107.994 6.75207 107.93 6.79787 107.856 6.82101ZM107.2 6.68649H107.644C107.674 6.69004 107.704 6.68719 107.733 6.67811C107.762 6.66903 107.788 6.65394 107.811 6.63383C107.834 6.61373 107.852 6.58905 107.864 6.56144C107.877 6.53383 107.883 6.50391 107.883 6.47364C107.883 6.44337 107.877 6.41345 107.864 6.38583C107.852 6.35822 107.834 6.33355 107.811 6.31344C107.788 6.29333 107.762 6.27824 107.733 6.26917C107.704 6.26009 107.674 6.25723 107.644 6.26078H107.2V6.68649Z" fill="white"/>
<path d="M121.359 5.40206C120.128 5.17925 118.968 4.99575 117.913 4.85449C117.776 4.88605 117.638 4.91857 117.499 4.95206C116.255 5.2486 115.028 5.61322 113.823 6.04429C113.974 6.51686 114.14 7.06371 114.313 7.65934C115.863 7.01092 117.45 6.45676 119.067 5.99988C119.854 5.77415 120.625 5.57391 121.359 5.40206ZM119.269 6.47754C119.856 6.6108 120.454 6.75351 121.058 6.90788C121.738 7.08215 122.4 7.26225 123.047 7.44817C124.228 7.0506 125.353 6.71565 126.382 6.45133C125.731 6.29793 125.062 6.14721 124.375 5.99915C123.721 5.85934 123.08 5.72876 122.452 5.6074C121.511 5.82949 120.511 6.09891 119.48 6.41274L119.269 6.47754ZM118.614 6.68507C117.21 7.13319 115.831 7.65503 114.482 8.24841C114.7 9.02972 114.932 9.88821 115.164 10.7969C116.774 9.94424 118.431 9.18403 120.127 8.52001C119.599 7.85375 119.09 7.23701 118.613 6.68507H118.614ZM127.593 6.74769C125.757 7.21953 123.553 7.95497 121.23 8.90157C119.005 9.80593 116.994 10.7773 115.386 11.6889C115.843 13.5355 116.214 15.2234 116.456 16.5144C118.281 15.1637 120.599 13.687 123.196 12.2634C126.691 10.3477 130.003 8.90739 132.471 8.1523C131.122 7.69429 129.456 7.21371 127.593 6.74769Z" fill="white"/>
</svg>
