<svg width="120" height="23" viewBox="0 0 120 23" fill="none" xmlns="http://www.w3.org/2000/svg">
<g clip-path="url(#clip0_1191_2137)">
<path d="M18.9041 4.01221C16.9799 4.01221 15.2557 4.9118 14.2561 6.28619C13.2316 4.9118 11.5324 4.01221 9.60824 4.01221C6.48464 4.01221 3.93579 6.38614 3.93579 9.30983C3.93579 14.1077 14.2811 22.4789 14.2811 22.4789C14.2811 22.4789 24.6265 14.2576 24.6265 9.30983C24.5765 6.38614 22.0277 4.01221 18.9041 4.01221Z" fill="white"/>
<path d="M18.9041 4.01221C16.9799 4.01221 15.2557 4.9118 14.2561 6.28619C13.2316 4.9118 11.5324 4.01221 9.60824 4.01221C6.48464 4.01221 3.93579 6.38614 3.93579 9.30983C3.93579 14.1077 14.2811 22.4789 14.2811 22.4789C14.2811 22.4789 24.6265 14.2576 24.6265 9.30983C24.5765 6.38614 22.0277 4.01221 18.9041 4.01221Z" stroke="white" stroke-width="0.0543006"/>
<path d="M18.9038 14.3577H16.0051V17.2564H12.4817V14.3577H9.58301V10.8093H12.4817V7.93555H16.0051V10.8093H18.9038V14.3577Z" fill="black"/>
<path d="M27.9001 19.8299C28.7997 19.8299 29.3995 19.6799 29.6744 19.3801C29.9492 19.0802 30.0742 18.6554 30.0742 18.0807V7.61037C30.0742 7.01064 29.9242 6.63581 29.6244 6.4359C29.3245 6.26098 28.7748 6.13603 27.9751 6.06107V5.48633H33.9474L38.6203 15.7067H38.8202L43.4681 5.48633H49.4405V6.06107C48.6408 6.11104 48.0911 6.26098 47.7912 6.48588C47.4913 6.71078 47.3414 7.23554 47.3414 8.06017V17.8308C47.3414 18.6304 47.4913 19.1802 47.7912 19.4051C48.0911 19.655 48.6408 19.8049 49.4405 19.8049V20.3796H41.569V19.8049C42.2687 19.7799 42.7935 19.6799 43.1683 19.48C43.5181 19.2801 43.693 18.8553 43.693 18.2056V7.41046H43.5181L37.6957 20.3546H37.046L31.1737 7.66035L31.0737 7.63536V17.6059C31.0737 18.3306 31.2237 18.8803 31.5235 19.2052C31.8234 19.53 32.4731 19.7299 33.4726 19.7549V20.3297H27.9001V19.8299Z" fill="white"/>
<path d="M52.8139 14.1825C52.8389 13.058 52.9888 12.1834 53.2387 11.5837C53.4886 10.9839 53.9384 10.6841 54.6131 10.6841C55.2628 10.6841 55.6876 10.9339 55.9125 11.4587C56.1374 11.9835 56.2373 12.8831 56.2623 14.1575H52.8139V14.1825ZM49.2405 15.332C49.2405 17.2061 49.7902 18.5805 50.8897 19.4301C51.9892 20.2797 53.1637 20.7046 54.4132 20.7046C55.2878 20.7046 56.0624 20.5546 56.7371 20.2797C57.7866 19.8549 58.6862 19.0803 59.4609 17.9558L58.8861 17.6309C58.4114 18.1057 58.0115 18.4306 57.6867 18.6305C57.1619 18.9553 56.5872 19.1053 55.9874 19.1053C54.738 19.1053 53.8634 18.5055 53.3636 17.3061C53.0887 16.6564 52.9138 15.9067 52.8638 15.0071H59.3609C59.3609 14.8072 59.3359 14.5073 59.286 14.1325C59.161 13.3079 58.9611 12.6582 58.6612 12.1334C58.2614 11.4587 57.6867 10.9339 56.962 10.5591C56.2123 10.1843 55.4377 9.98438 54.5881 9.98438C53.1137 9.98438 51.8643 10.4592 50.8148 11.3837C49.7652 12.3333 49.2405 13.6577 49.2405 15.332Z" fill="white"/>
<path d="M106.54 14.1825C106.565 13.058 106.715 12.1834 106.964 11.5837C107.214 10.9839 107.664 10.6841 108.339 10.6841C108.989 10.6841 109.413 10.9339 109.638 11.4587C109.863 11.9835 109.963 12.8831 109.988 14.1575H106.54V14.1825ZM102.991 15.332C102.991 17.2061 103.541 18.5805 104.64 19.4301C105.74 20.2797 106.914 20.7046 108.164 20.7046C109.038 20.7046 109.813 20.5546 110.488 20.2797C111.537 19.8549 112.437 19.0803 113.237 17.9558L112.662 17.6309C112.187 18.1057 111.787 18.4306 111.462 18.6305C110.938 18.9553 110.363 19.1053 109.763 19.1053C108.514 19.1053 107.639 18.5055 107.139 17.3061C106.864 16.6564 106.69 15.9067 106.64 15.0071H113.137C113.137 14.8072 113.112 14.5073 113.062 14.1325C112.937 13.3079 112.737 12.6582 112.437 12.1334C112.037 11.4587 111.462 10.9339 110.738 10.5591C109.988 10.1843 109.213 9.98438 108.364 9.98438C106.889 9.98438 105.64 10.4592 104.59 11.3837C103.516 12.3333 102.991 13.6577 102.991 15.332Z" fill="white"/>
<path d="M66.0078 19.455C65.2082 19.455 64.6584 18.9302 64.3586 17.9057C64.2086 17.3309 64.1337 16.4813 64.1337 15.3318C64.1337 14.2573 64.2086 13.4577 64.3836 12.8579C64.6834 11.7834 65.2582 11.2337 66.1078 11.2337C66.6825 11.2337 67.1323 11.4086 67.4822 11.7584C67.832 12.1083 68.0069 12.3831 68.0069 12.5581V17.9306C68.0069 18.1056 67.807 18.4054 67.4072 18.8302C66.9824 19.2551 66.5326 19.455 66.0078 19.455ZM60.6353 15.6317C60.6353 17.206 61.0601 18.4304 61.9347 19.33C62.7843 20.2296 63.8088 20.7044 64.9583 20.7044C65.633 20.7044 66.2827 20.5545 66.8575 20.2296C67.2323 20.0297 67.6321 19.7048 68.0819 19.2551V20.7044C69.0565 20.4545 69.7312 20.3046 70.131 20.2546C70.5308 20.2046 71.3804 20.1047 72.7048 19.9797V19.43C72.1551 19.38 71.8052 19.28 71.6053 19.1051C71.4304 18.9302 71.3304 18.6303 71.3304 18.1805V5.51123H66.2077V6.06099C66.9324 6.08598 67.4072 6.16094 67.6321 6.31087C67.857 6.43582 67.9819 6.78566 67.9819 7.33542V11.3586C67.5322 10.9088 67.1573 10.6089 66.8325 10.434C66.3577 10.1591 65.7829 10.0092 65.1582 10.0092C63.9088 10.0092 62.8343 10.509 61.9347 11.5085C61.0851 12.5081 60.6353 13.8825 60.6353 15.6317Z" fill="white"/>
<path d="M73.9293 19.8298C74.579 19.8048 75.0288 19.7298 75.3037 19.6049C75.7785 19.38 76.0034 18.9302 76.0034 18.2805V7.61029C76.0034 6.98557 75.7784 6.53577 75.3287 6.33586C75.0788 6.21092 74.604 6.11097 73.9293 6.08598V5.51123H82.2256V6.08598C81.251 6.11097 80.6013 6.23591 80.2764 6.46081C79.9516 6.68571 79.8016 7.21047 79.8016 8.08508V18.5054C79.8016 19.0052 79.9266 19.305 80.2015 19.48C80.4763 19.6299 81.0011 19.7049 81.8007 19.7049C83.2251 19.7049 84.4246 19.405 85.3991 18.8302C86.3737 18.2555 87.1983 17.106 87.898 15.4068H88.5977L87.6231 20.4045H73.9043V19.8298H73.9293Z" fill="white"/>
<path d="M90.5718 5.73659C90.9217 5.41174 91.3715 5.23682 91.8713 5.23682C92.371 5.23682 92.7959 5.41174 93.1707 5.73659C93.5205 6.06145 93.7204 6.48625 93.7204 6.96104C93.7204 7.43583 93.5455 7.83564 93.1707 8.1605C92.8208 8.48535 92.396 8.66027 91.8713 8.66027C91.3715 8.66027 90.9217 8.48535 90.5718 8.1605C90.222 7.83564 90.0471 7.43583 90.0471 6.96104C90.0471 6.46126 90.222 6.06145 90.5718 5.73659ZM89.0225 19.8802C89.4224 19.8303 89.7222 19.7303 89.8722 19.6054C90.0971 19.4054 90.222 19.0556 90.222 18.5558V12.0837C90.222 11.6339 90.147 11.3341 89.9721 11.1841C89.8222 11.0342 89.4973 10.9093 89.0225 10.8343V10.2845H93.5455V18.6558C93.5455 19.1306 93.6205 19.4554 93.7704 19.5804C93.9203 19.7053 94.2202 19.8303 94.645 19.9052V20.455H88.9976V19.8802H89.0225Z" fill="white"/>
<path d="M95.7444 19.8798C96.2442 19.8548 96.594 19.7549 96.7939 19.58C97.0188 19.405 97.1188 19.0802 97.1188 18.5554V11.4086H95.7444V10.4341H97.1188V9.60945C97.1188 8.58491 97.2937 7.73529 97.6435 7.06059C98.2932 5.83614 99.5177 5.21143 101.292 5.21143C102.241 5.21143 103.041 5.41133 103.691 5.81115C104.341 6.21097 104.665 6.73574 104.665 7.38544C104.665 7.81025 104.515 8.13511 104.266 8.38499C103.991 8.63488 103.616 8.75983 103.166 8.75983C102.791 8.75983 102.466 8.63488 102.191 8.40998C101.917 8.18509 101.792 7.91021 101.792 7.58536C101.792 7.33547 101.867 7.08558 102.042 6.81071C102.216 6.53583 102.291 6.3859 102.291 6.31093C102.291 6.13601 102.216 6.01107 102.092 5.96109C101.967 5.91111 101.792 5.88612 101.642 5.88612C101.242 5.88612 100.967 5.98608 100.742 6.21098C100.542 6.41089 100.442 6.86068 100.442 7.56037V10.4091H102.516V11.3836H100.442V18.1306C100.442 18.8803 100.567 19.3551 100.792 19.505C101.017 19.6799 101.542 19.7799 102.366 19.8299V20.3796H95.7444V19.8798Z" fill="white"/>
</g>
<defs>
<clipPath id="clip0_1191_2137">
<rect width="118.947" height="22.24" fill="white" transform="translate(0.912109 0.335449)"/>
</clipPath>
</defs>
</svg>
