<svg width="102" height="23" viewBox="0 0 102 23" fill="none" xmlns="http://www.w3.org/2000/svg">
<path d="M36.4312 5.83919V11.7554C36.4312 15.1129 34.2225 17.3843 30.191 17.3843C26.1596 17.3843 23.9509 15.1129 23.9509 11.7554V5.83919H26.491V11.5653C26.491 13.805 27.7936 15.1467 30.191 15.1467C32.5885 15.1467 33.8911 13.805 33.8911 11.5653V5.83919H36.4312ZM40.5088 5.83919L44.7039 14.5023L48.88 5.83919H51.6257L46.0211 17.0378H43.3342L37.7296 5.83919H40.5088ZM52.0347 11.4364C52.0347 7.69435 54.7615 5.48633 59.0992 5.48633C63.4369 5.48633 66.1637 7.69435 66.1637 11.4364C66.1637 15.1784 63.4369 17.3864 59.0992 17.3864C54.7615 17.3864 52.0347 15.1805 52.0347 11.4364ZM63.5711 11.4364C63.5711 9.03818 61.8407 7.69435 59.0929 7.69435C56.3451 7.69435 54.6147 9.03818 54.6147 11.4364C54.6147 13.8346 56.3305 15.1805 59.0929 15.1805C61.8554 15.1805 63.5774 13.8367 63.5774 11.4364H63.5711ZM81.5617 11.4364C81.5617 14.9227 78.8768 17.0357 74.686 17.0357H68.7856V5.83707H74.6923C78.8831 5.83918 81.568 7.95002 81.568 11.4364H81.5617ZM78.9733 11.4364C78.9733 9.13326 77.1631 8.01341 74.4951 8.01341H71.3257V14.8593H74.5014C77.1694 14.8593 78.9796 13.7395 78.9796 11.4364H78.9733ZM92.5003 14.6671H85.7882L84.5968 17.0357H81.8847L87.7746 5.83707H90.5538L96.4436 17.0357H93.698L92.5003 14.6671ZM91.4368 12.5879L89.1296 8.03031L86.8223 12.5879H91.4368ZM13.5073 14.1135C14.6064 12.7908 15.6048 11.5124 16.5109 10.3545C17.7695 8.75927 18.9252 8.03031 21.0227 8.03031H22.1911V5.85398H20.4082C17.415 5.85398 15.8272 7.14499 14.3673 8.96212C13.4779 10.0693 12.3536 11.485 11.4307 12.6175C10.3631 13.9592 9.27866 14.8678 7.00284 14.8741H5.83032V17.0505H7.62371C10.0946 17.0357 11.7517 16.2264 13.5073 14.1135Z" fill="white"/>
</svg>
