<svg width="87" height="53" viewBox="0 0 87 53" fill="none" xmlns="http://www.w3.org/2000/svg">
<path d="M33.2609 22.9868C31.731 22.9868 30.7599 23.9827 30.458 25.303H35.9016C35.7168 23.8453 34.6961 22.9868 33.2609 22.9868Z" fill="white"/>
<path d="M18.7127 23.5659C16.766 23.5659 15.5381 24.9088 15.5381 26.7856C15.5381 28.6399 16.7886 30.0279 18.7127 30.0279C20.6369 30.0279 21.9325 28.7075 21.9325 26.7856C21.9325 24.8637 20.6347 23.5659 18.7127 23.5659Z" fill="white"/>
<path d="M57.9979 20.4858C55.0756 20.4858 52.8 21.6529 52.4282 24.6834C52.4012 24.6856 52.4462 24.6834 52.4192 24.6834C51.4999 10.9506 40.6669 0.0927734 26.7021 0.0927734C15.6663 0.0927734 6.21891 6.87693 2.28946 16.5H11.6467L11.16 19.6499H3.81708V22.9868H10.466L9.95684 26.0217H3.81708V27.9684C3.81708 29.149 4.32629 29.7056 5.29964 29.7056H11.5768L11.0676 32.8554H4.11675C3.77878 32.8554 3.45658 32.8239 3.15016 32.7698V32.7721C3.15016 32.7721 1.94699 32.6414 1.20121 31.6725C1.18318 31.65 0.879009 31.2895 0.730303 30.6969C0.692 30.5415 0.687494 30.5325 0.658203 30.4108C0.707772 30.8028 0.791137 31.3301 0.829441 31.5238C1.04123 32.6234 1.30936 33.5539 1.33414 33.6192C4.45697 44.6956 14.6276 52.8181 26.7021 52.8181C39.0537 52.8181 49.4879 44.3216 52.3471 32.8577H48.8029V26.4183C48.8029 24.6811 48.1315 23.5681 46.4169 23.5681C44.7023 23.5681 44.0308 24.6811 44.0308 26.4183V32.8577H40.4867V25.5373C40.4867 22.0382 43.0349 20.488 46.4169 20.488C49.7988 20.488 52.3471 22.0404 52.3471 25.5373L52.3448 32.8577H55.9115V26.4183C55.9115 24.6811 56.3757 23.5681 58.0655 23.5681C58.5995 23.5681 59.2462 23.7303 59.4782 23.8452L60.1497 20.7404C59.7599 20.6931 58.764 20.4858 57.9979 20.4858ZM25.4989 26.069C25.4989 30.4942 22.8808 33.0875 18.548 33.0875C14.5397 33.0875 11.8292 30.3995 11.8292 26.7855C11.8292 23.0093 14.4 20.4835 18.2461 20.4835C20.0058 20.4835 21.3036 21.1775 21.9525 21.8737V16.5H25.4966V26.069H25.4989ZM34.4415 30.4243C35.4847 30.4243 36.4491 30.1224 37.3548 29.7056L37.0597 32.5085C36.0412 32.9253 34.8133 33.0875 33.5853 33.0875C29.5072 33.0875 26.6345 30.7014 26.6345 26.6481C26.6345 23.1264 29.2053 20.4858 33.1437 20.4858C37.5914 20.4858 39.8152 23.3112 39.7229 27.6665H30.5504C30.8974 29.6605 32.7968 30.4243 34.4415 30.4243Z" fill="white"/>
<path d="M66.0376 20.4858C62.0991 20.4858 59.5283 23.1265 59.5283 26.6481C59.5283 30.7015 62.401 33.0876 66.4792 33.0876C67.7072 33.0876 68.9351 32.9253 69.9535 32.5085L70.2487 29.7056C69.3452 30.1224 68.3786 30.4244 67.3376 30.4244C65.6929 30.4244 63.7935 29.6606 63.4465 27.6665H72.6212C72.7091 23.3113 70.4853 20.4858 66.0376 20.4858ZM63.3496 25.3053C63.6515 23.9849 64.6249 22.9891 66.1525 22.9891C67.59 22.9891 68.6084 23.8452 68.7932 25.3053H63.3496Z" fill="white"/>
<path d="M83.134 16.5V21.8737C82.4851 21.1797 81.1873 20.4835 79.4276 20.4835C75.5816 20.4835 73.0107 23.0093 73.0107 26.7855C73.0107 30.3995 75.7213 33.0875 79.7296 33.0875C84.0623 33.0875 86.6804 30.4919 86.6804 26.069V16.5H83.134ZM79.8895 30.03C77.9676 30.03 76.7149 28.6398 76.7149 26.7878C76.7149 24.9109 77.9428 23.568 79.8895 23.568C81.8114 23.568 83.1092 24.8658 83.1092 26.7878C83.1115 28.7097 81.8137 30.03 79.8895 30.03Z" fill="white"/>
</svg>
